<svg height='100px' width='100px'  xmlns="http://www.w3.org/2000/svg" viewBox="0 0 26 22" fill="none" x="0px" y="0px"><path d="M17.4849 3.58603C16.0869 3.15659 14.5762 2.89951 13 2.89951C5.82031 2.89951 0 8.23288 0 10.8995C0 12.3816 1.79785 14.6873 4.62793 16.4435L6.08545 14.9856C5.69092 14.758 5.31641 14.5173 4.96387 14.2675C3.92676 13.5331 3.13379 12.7557 2.62012 12.0726C2.47559 11.8801 2.35938 11.7036 2.26807 11.5457C2.19775 11.4244 2.14258 11.3141 2.1001 11.216C2.01416 11.0164 2.00195 10.9144 2.00049 10.8995C2.00098 10.8929 2.00391 10.8694 2.01416 10.8279C2.02734 10.7754 2.05225 10.6943 2.1001 10.583C2.19727 10.3576 2.36426 10.067 2.62012 9.72641C3.13379 9.04331 3.92676 8.26596 4.96387 7.53147C7.04248 6.05881 9.89648 4.89951 13 4.89951C13.981 4.89951 14.9365 5.01535 15.8511 5.22019L17.4849 3.58603Z" fill="white"></path><path d="M14.8271 6.24387C14.2612 6.02158 13.645 5.89951 13 5.89951C10.2388 5.89951 8 8.13803 8 10.8995C8 11.5444 8.12207 12.1607 8.34424 12.7268L14.8271 6.24387Z" fill="white"></path><path d="M11.1729 15.555L17.6558 9.07224C17.8779 9.63828 18 10.2546 18 10.8995C18 13.661 15.7612 15.8995 13 15.8995C12.355 15.8995 11.7388 15.7773 11.1729 15.555Z" fill="white"></path><path d="M10.1489 16.5788C11.0635 16.7837 12.019 16.8995 13 16.8995C16.1035 16.8995 18.9575 15.7402 21.0361 14.2675C22.0732 13.5331 22.8662 12.7557 23.3799 12.0726C23.6357 11.732 23.8022 11.4414 23.8999 11.216C23.9858 11.0164 23.998 10.9144 23.9995 10.8995C23.998 10.8846 23.9858 10.7826 23.8999 10.583C23.8022 10.3576 23.6357 10.067 23.3799 9.72641C22.8662 9.04331 22.0732 8.26596 21.0361 7.53147C20.6836 7.28171 20.3091 7.04099 19.9146 6.81345L21.3721 5.35556C24.2021 7.11167 26 9.41745 26 10.8995C26 13.5661 20.1797 18.8995 13 18.8995C11.4238 18.8995 9.9126 18.6424 8.51465 18.2129L10.1489 16.5788Z" fill="white"></path><path d="M22.1923 0.292893C22.5828 -0.0976308 23.216 -0.0976314 23.6065 0.292893C23.997 0.683417 23.997 1.31658 23.6065 1.70711L3.80753 21.5061C3.41701 21.8966 2.78384 21.8966 2.39332 21.5061C2.00279 21.1156 2.00279 20.4824 2.39332 20.0919L22.1923 0.292893Z" fill="white"></path></svg>