<svg height='100px' width='100px'  fill="#ffffff" xmlns="http://www.w3.org/2000/svg" xmlns:xlink="http://www.w3.org/1999/xlink" xml:space="preserve" version="1.1" style="shape-rendering:geometricPrecision;text-rendering:geometricPrecision;image-rendering:optimizeQuality;" viewBox="0 0 661 661" x="0px" y="0px" fill-rule="evenodd" clip-rule="evenodd"><defs></defs><g><path class="fil0" d="M331 0c36,0 66,30 66,66l0 199 198 0c37,0 66,29 66,66 0,36 -29,66 -66,66l-198 0 0 198c0,37 -30,66 -66,66 -37,0 -66,-29 -66,-66l0 -198 -199 0c-36,0 -66,-30 -66,-66 0,-37 30,-66 66,-66l199 0 0 -199c0,-36 29,-66 66,-66z"></path></g></svg>