<svg data-name="Ebene 1" xmlns="http://www.w3.org/2000/svg" fill="#fff" viewBox="0 0 100.17 82.35"><path d="M3.9,32.24a4.05,4.05,0,0,0-4,4V82.53a4.05,4.05,0,0,0,4,4h48a4.05,4.05,0,0,0,4-4v-8.7a3.34,3.34,0,1,0-6.68-.09v6.09H6.6V38.92H37.49a3.34,3.34,0,1,0,.1-6.68H3.9Z" transform="translate(0.08 -4.16)"/><path d="M16.38,44.19A3.77,3.77,0,1,0,20.19,48,3.77,3.77,0,0,0,16.38,44.19Z" transform="translate(0.08 -4.16)"/><path d="M27.9,55.63a3.76,3.76,0,1,0,3.78,3.74A3.75,3.75,0,0,0,27.9,55.63Z" transform="translate(0.08 -4.16)"/><path d="M16.38,67a3.75,3.75,0,1,0,3.81,3.76A3.76,3.76,0,0,0,16.38,67Z" transform="translate(0.08 -4.16)"/><path d="M39.42,67A3.75,3.75,0,1,0,43.2,70.8,3.77,3.77,0,0,0,39.42,67Z" transform="translate(0.08 -4.16)"/><path d="M70.91,75.62a4.06,4.06,0,0,0,5.44-1.46L99.57,34.05a4,4,0,0,0-1.46-5.43L56.54,4.68a4.07,4.07,0,0,0-5.45,1.45L27.87,46.24a4.05,4.05,0,0,0,1.46,5.44Zm1-7.13L35,47.24,55.53,11.8l36.9,21.25Z" transform="translate(0.08 -4.16)"/><path d="M79.15,32.24a3.73,3.73,0,0,0-3,1.87,3.79,3.79,0,1,0,5.14-1.36,3.67,3.67,0,0,0-2.14-.51Z" transform="translate(0.08 -4.16)"/><path d="M63.45,36.41a3.72,3.72,0,0,0-3,1.84,3.79,3.79,0,1,0,5.14-1.36,3.71,3.71,0,0,0-2.14-.48Z" transform="translate(0.08 -4.16)"/><path d="M47.75,40.55a3.72,3.72,0,0,0-3,1.84,3.83,3.83,0,1,0,3-1.84Z" transform="translate(0.08 -4.16)"/></svg>