<svg height='100px' width='100px'  xmlns="http://www.w3.org/2000/svg" viewBox="0 0 26 16" fill="none" x="0px" y="0px"><path d="M13 13C15.7614 13 18 10.7615 18 8C18 5.23853 15.7614 3 13 3C10.2386 3 8 5.23853 8 8C8 10.7615 10.2386 13 13 13Z" fill="white"></path><path fill-rule="evenodd" clip-rule="evenodd" d="M25.9999 8C25.9999 10.6666 20.1797 16 13 16C5.82031 16 0 10.6666 0 8C0 5.33337 5.82031 0 13 0C20.1797 0 25.9999 5.33337 25.9999 8ZM23.8997 7.68347C23.9858 7.88306 23.998 7.98511 23.9997 8C23.998 8.01489 23.9858 8.11694 23.8997 8.31653C23.8024 8.54187 23.6359 8.83252 23.3798 9.1731C22.8661 9.8562 22.073 10.6335 21.0362 11.368C18.9575 12.8407 16.1034 14 13 14C9.89655 14 7.04248 12.8407 4.96375 11.368C3.927 10.6335 3.13379 9.8562 2.62024 9.1731C2.36407 8.83252 2.19751 8.54187 2.10022 8.31653C2.0141 8.11694 2.00195 8.01489 2.00031 8C2.00195 7.98511 2.0141 7.88306 2.10022 7.68347C2.19751 7.45813 2.36407 7.16748 2.62024 6.8269C3.13379 6.1438 3.927 5.36646 4.96375 4.63196C7.04248 3.1593 9.89655 2 13 2C16.1034 2 18.9575 3.1593 21.0362 4.63196C22.073 5.36646 22.8661 6.1438 23.3798 6.8269C23.6359 7.16748 23.8024 7.45813 23.8997 7.68347Z" fill="white"></path></svg>