<svg height='100px' width='100px'  fill="#fff" xmlns="http://www.w3.org/2000/svg" data-name="Layer 2" viewBox="0 0 48 48" x="0px" y="0px"><title>video music player</title><path d="M25.06,36.09H16v-4a8,8,0,0,1,15.58-2.56,2,2,0,1,0,3.79-1.28,12,12,0,0,0-5.47-6.61,8,8,0,1,0-11.6-.11A12,12,0,0,0,12,32.09v6a2,2,0,0,0,2,2H25.06a2,2,0,1,0,0-4Zm-.91-24a4,4,0,1,1-4,4A4,4,0,0,1,24.15,12.09Z"></path><path d="M38,36.09H36V34a2,2,0,1,0-4,0v2.05H30a2,2,0,0,0,0,4h2v2a2,2,0,0,0,4,0v-2h2a2,2,0,0,0,0-4Z"></path></svg>