<svg height='100px' width='100px'  fill="#880e0e" xmlns="http://www.w3.org/2000/svg" xmlns:xlink="http://www.w3.org/1999/xlink" version="1.1" x="0px" y="0px" viewBox="-909 491 100 100" style="enable-background:new -909 491 100 100;" xml:space="preserve"><path d="M-881.6,574.9c7.3,1.2,14.8,1.8,22.1,1.8c0.4,0,0.8,0,1.2,0c7.8-0.1,15.6-0.8,23.4-2.2c0,0,0,0,0,0  c5.7-1.1,11.3-6.6,12.5-12.3c1.4-7,2.1-14.2,2.1-21.2c0-7-0.7-14.2-2.1-21.2c-1.2-5.6-6.8-11.1-12.5-12.2  c-7.7-1.4-15.6-2.2-23.4-2.2c-7.8-0.1-15.6,0.5-23.4,1.8c-5.7,1-11.4,6.5-12.6,12.3c-1.4,7.2-2.1,14.4-2.1,21.6s0.7,14.4,2.1,21.7  C-893,568.4-887.4,573.9-881.6,574.9z M-887.3,520.8c0.6-2.9,4-6.3,6.9-6.8c7-1.1,14-1.7,21-1.7c0.4,0,0.8,0,1.2,0  c7.4,0.1,14.8,0.8,22.1,2.1c2.9,0.6,6.4,3.9,6.9,6.7c1.3,6.6,1.9,13.3,1.9,19.9c0,6.6-0.6,13.3-1.9,19.8c-0.6,2.8-4,6.2-6.9,6.8  c-7.3,1.3-14.8,2.1-22.1,2.1c-7.4,0.1-14.8-0.5-22.1-1.7c-2.9-0.5-6.3-3.9-6.9-6.7c-1.3-6.7-2-13.6-2-20.3S-888.6,527.5-887.3,520.8  z"></path><path d="M-874.1,560.1c0.7,0.6,1.5,0.9,2.4,0.9c0.9,0,1.9-0.4,2.6-1.1c2.6-2.8,6.8-5,11.6-6c0.6-0.1,1.1-0.2,1.7-0.3  c1.7,6.8,6.6,12.5,11,11.4c4.4-1.1,6.7-7.2,5.2-14c0,0,0-0.1,0-0.1c0-0.1,0-0.2-0.1-0.3l0,0c-0.3-1-0.9-1.8-1.9-2.3  c-4.9-2.2-11-2.7-17.3-1.4c-6.2,1.3-11.7,4.2-15.3,8.1C-875.6,556.6-875.5,558.8-874.1,560.1z"></path><path d="M-848,531.4l-1.2,1.4c-1.3,1.5-1.1,3.7,0.4,4.9c0.7,0.6,1.5,0.8,2.3,0.8c1,0,2-0.4,2.7-1.2l1.2-1.4l1.4,1.2  c0.7,0.6,1.5,0.8,2.3,0.8c1,0,2-0.4,2.7-1.2c1.3-1.5,1.1-3.7-0.4-4.9l-1.4-1.2l1.2-1.4c1.3-1.5,1.1-3.7-0.4-4.9  c-1.5-1.3-3.7-1.1-4.9,0.4l-1.2,1.4l-1.4-1.2c-1.5-1.3-3.7-1.1-4.9,0.4c-1.3,1.5-1.1,3.7,0.4,4.9L-848,531.4z"></path><path d="M-877.8,531.4l-1.2,1.4c-1.3,1.5-1.1,3.7,0.4,4.9c0.7,0.6,1.5,0.8,2.3,0.8c1,0,2-0.4,2.7-1.2l1.2-1.4l1.4,1.2  c0.7,0.6,1.5,0.8,2.3,0.8c1,0,2-0.4,2.7-1.2c1.3-1.5,1.1-3.7-0.4-4.9l-1.4-1.2l1.2-1.4c1.3-1.5,1.1-3.7-0.4-4.9  c-1.5-1.3-3.7-1.1-4.9,0.4l-1.2,1.4l-1.4-1.2c-1.5-1.3-3.7-1.1-4.9,0.4c-1.3,1.5-1.1,3.7,0.4,4.9L-877.8,531.4z"></path></svg>