<svg height='100px' width='100px'  fill="#ffffff" xmlns="http://www.w3.org/2000/svg" xmlns:xlink="http://www.w3.org/1999/xlink" version="1.1" x="0px" y="0px" viewBox="0 0 1024 1024" style="enable-background:new 0 0 1024 1024;" xml:space="preserve"><g><g><g><path d="M895.7,555.4c-15.1,0-30.8,0.9-45,6.5c-11.6,4.6-20.9,9.3-30.7,16.9c-9.7,7.5-16.4,15-23.8,24.9     c-22.9,30.6-26,73.3-11.5,107.8c5.2,12.3,11.7,22.2,20.6,32.4c4,4.6,8.7,8.5,12.4,13.3c-2.3-3-4.7-6.1-7-9.1     c1.9,2.7,3.5,5.5,4.9,8.5c-1.5-3.6-3-7.2-4.5-10.7c1.4,3.4,2.3,6.9,2.8,10.6c-0.5-4-1.1-8-1.6-12c0.3,3.2,0.3,6.3,0,9.5     c0.5-4,1.1-8,1.6-12c-0.5,3.7-1.4,7.2-2.8,10.6c1.5-3.6,3-7.2,4.5-10.7c-1.3,3-2.9,5.8-4.9,8.5c2.3-3,4.7-6.1,7-9.1     c-7.6,9.8-17.5,18.1-26.3,26.8c-12.8,12.8-25.6,25.6-38.5,38.5c-3.8,3.8-7.6,7.9-11.9,11.3c3-2.3,6.1-4.7,9.1-7     c-2.7,1.9-5.5,3.5-8.5,4.9c3.6-1.5,7.2-3,10.7-4.5c-3.4,1.4-6.9,2.3-10.6,2.8c4-0.5,8-1.1,12-1.6c-3.2,0.3-6.3,0.3-9.5,0     c4,0.5,8,1.1,12,1.6c-3.7-0.5-7.2-1.4-10.6-2.8c3.6,1.5,7.2,3,10.7,4.5c-3-1.3-5.8-2.9-8.5-4.9c3,2.3,6.1,4.7,9.1,7     c-4.2-3.2-7.6-7.2-11.4-10.8c-7.6-7.1-16.3-13.9-25.7-18.6c-18.1-8.8-38.3-14.4-58.6-12.4c-19.8,2-39.6,7.1-56,18.9     c-8.1,5.9-16.1,11.9-22.4,19.7c-7.9,9.8-13.5,18.3-18.3,29.7c-5.4,12.7-7.9,24.4-8.9,38.4c-0.5,6.2,0.1,12.4-0.6,18.6     c0.5-4,1.1-8,1.6-12c-0.6,3.6-1.5,7-2.9,10.3c1.5-3.6,3-7.2,4.5-10.7c-1.5,3.2-3.2,6.2-5.4,9c2.3-3,4.7-6.1,7-9.1     c-2,2.4-4.1,4.5-6.5,6.5c3-2.3,6.1-4.7,9.1-7c-2.8,2.2-5.8,3.9-9,5.4c3.6-1.5,7.2-3,10.7-4.5c-3.4,1.4-6.7,2.3-10.3,2.9     c4-0.5,8-1.1,12-1.6c-12.2,1.5-25.1,0.4-37.3,0.4c-18.1,0-36.3,0-54.4,0c-5.3,0-10.8,0.3-16.1-0.4c4,0.5,8,1.1,12,1.6     c-3.6-0.6-7-1.5-10.3-2.9c3.6,1.5,7.2,3,10.7,4.5c-3.2-1.5-6.2-3.2-9-5.4c3,2.3,6.1,4.7,9.1,7c-2.4-2-4.5-4.1-6.5-6.5     c2.3,3,4.7,6.1,7,9.1c-2.2-2.8-3.9-5.8-5.4-9c1.5,3.6,3,7.2,4.5,10.7c-1.4-3.4-2.3-6.7-2.9-10.3c0.5,4,1.1,8,1.6,12     c-0.6-5.1-0.2-10.3-0.4-15.5c-0.4-10.6-1.8-21.8-5.2-31.9c-6.5-18.8-17-36.9-32.5-49.7c-15.2-12.5-32.7-22.9-52.4-26.1     c-20.1-3.2-40.7-3.6-59.9,4.1c-14.8,5.9-25.6,12.2-37.8,22.7c-4.8,4.1-8.8,9-13.7,12.8c3-2.3,6.1-4.7,9.1-7     c-2.7,1.9-5.5,3.5-8.5,4.9c3.6-1.5,7.2-3,10.7-4.5c-3.4,1.4-6.9,2.3-10.6,2.8c4-0.5,8-1.1,12-1.6c-3.2,0.3-6.3,0.3-9.5,0     c4,0.5,8,1.1,12,1.6c-3.7-0.5-7.2-1.4-10.6-2.8c3.6,1.5,7.2,3,10.7,4.5c-3-1.3-5.8-2.9-8.5-4.9c3,2.3,6.1,4.7,9.1,7     c-9.8-7.6-18.1-17.5-26.8-26.3c-12.8-12.8-25.6-25.6-38.5-38.5c-3.8-3.8-7.9-7.6-11.3-11.9c2.3,3,4.7,6.1,7,9.1     c-1.9-2.7-3.5-5.5-4.9-8.5c1.5,3.6,3,7.2,4.5,10.7c-1.4-3.4-2.3-6.9-2.8-10.6c0.5,4,1.1,8,1.6,12c-0.3-3.2-0.3-6.3,0-9.5     c-0.5,4-1.1,8-1.6,12c0.5-3.7,1.4-7.2,2.8-10.6c-1.5,3.6-3,7.2-4.5,10.7c1.3-3,2.9-5.8,4.9-8.5c-2.3,3-4.7,6.1-7,9.1     c3.2-4.2,7.2-7.6,10.8-11.4c7.1-7.6,13.9-16.3,18.6-25.7c8.8-18.1,14.4-38.3,12.4-58.6c-2-19.8-7.1-39.6-18.9-56     c-5.9-8.1-11.9-16.1-19.7-22.4c-9.8-7.9-18.2-13.5-29.7-18.3c-12.7-5.4-24.4-7.9-38.4-8.9c-6.2-0.5-12.4,0.1-18.6-0.6     c4,0.5,8,1.1,12,1.6c-3.6-0.6-7-1.5-10.3-2.9c3.6,1.5,7.2,3,10.7,4.5c-3.2-1.5-6.2-3.2-9-5.4c3,2.3,6.1,4.7,9.1,7     c-2.4-2-4.5-4.1-6.5-6.5c2.3,3,4.7,6.1,7,9.1c-2.2-2.8-3.9-5.8-5.4-9c1.5,3.6,3,7.2,4.5,10.7c-1.4-3.4-2.3-6.7-2.9-10.3     c0.5,4,1.1,8,1.6,12c-1.5-12.2-0.4-25.1-0.4-37.3c0-18.1,0-36.3,0-54.4c0-5.3-0.3-10.8,0.4-16.1c-0.5,4-1.1,8-1.6,12     c0.6-3.6,1.5-7,2.9-10.3c-1.5,3.6-3,7.2-4.5,10.7c1.5-3.2,3.2-6.2,5.4-9c-2.3,3-4.7,6.1-7,9.1c2-2.4,4.1-4.5,6.5-6.5     c-3,2.3-6.1,4.7-9.1,7c2.8-2.2,5.8-3.9,9-5.4c-3.6,1.5-7.2,3-10.7,4.5c3.4-1.4,6.7-2.3,10.3-2.9c-4,0.5-8,1.1-12,1.6     c5.1-0.6,10.3-0.2,15.5-0.4c10.6-0.4,21.8-1.8,31.9-5.2c18.8-6.5,36.9-17,49.7-32.5c12.5-15.2,22.9-32.7,26.1-52.4     c3.2-20.1,3.6-40.7-4.1-59.9c-5.9-14.8-12.2-25.6-22.7-37.8c-4.1-4.8-9-8.8-12.8-13.7c2.3,3,4.7,6.1,7,9.1     c-1.9-2.7-3.5-5.5-4.9-8.5c1.5,3.6,3,7.2,4.5,10.7c-1.4-3.4-2.3-6.9-2.8-10.6c0.5,4,1.1,8,1.6,12c-0.3-3.2-0.3-6.3,0-9.5     c-0.5,4-1.1,8-1.6,12c0.5-3.7,1.4-7.2,2.8-10.6c-1.5,3.6-3,7.2-4.5,10.7c1.3-3,2.9-5.8,4.9-8.5c-2.3,3-4.7,6.1-7,9.1     c7.6-9.8,17.5-18.1,26.3-26.8c12.8-12.8,25.6-25.6,38.5-38.5c3.8-3.8,7.6-7.9,11.9-11.3c-3,2.3-6.1,4.7-9.1,7     c2.7-1.9,5.5-3.5,8.5-4.9c-3.6,1.5-7.2,3-10.7,4.5c3.4-1.4,6.9-2.3,10.6-2.8c-4,0.5-8,1.1-12,1.6c3.2-0.3,6.3-0.3,9.5,0     c-4-0.5-8-1.1-12-1.6c3.7,0.5,7.2,1.4,10.6,2.8c-3.6-1.5-7.2-3-10.7-4.5c3,1.3,5.8,2.9,8.5,4.9c-3-2.3-6.1-4.7-9.1-7     c4.2,3.2,7.6,7.2,11.4,10.8c7.6,7.1,16.3,13.9,25.7,18.6c18.1,8.8,38.3,14.4,58.6,12.4c19.8-2,39.6-7.1,56-18.9     c8.1-5.9,16.1-11.9,22.4-19.7c7.9-9.8,13.5-18.2,18.3-29.7c5.4-12.7,7.9-24.4,8.9-38.4c0.5-6.2-0.1-12.4,0.6-18.6     c-0.5,4-1.1,8-1.6,12c0.6-3.6,1.5-7,2.9-10.3c-1.5,3.6-3,7.2-4.5,10.7c1.5-3.2,3.2-6.2,5.4-9c-2.3,3-4.7,6.1-7,9.1     c2-2.4,4.1-4.5,6.5-6.5c-3,2.3-6.1,4.7-9.1,7c2.8-2.2,5.8-3.9,9-5.4c-3.6,1.5-7.2,3-10.7,4.5c3.4-1.4,6.7-2.3,10.3-2.9     c-4,0.5-8,1.1-12,1.6c12.2-1.5,25.1-0.4,37.3-0.4c18.1,0,36.3,0,54.4,0c5.3,0,10.8-0.3,16.1,0.4c-4-0.5-8-1.1-12-1.6     c3.6,0.6,7,1.5,10.3,2.9c-3.6-1.5-7.2-3-10.7-4.5c3.2,1.5,6.2,3.2,9,5.4c-3-2.3-6.1-4.7-9.1-7c2.4,2,4.5,4.1,6.5,6.5     c-2.3-3-4.7-6.1-7-9.1c2.2,2.8,3.9,5.8,5.4,9c-1.5-3.6-3-7.2-4.5-10.7c1.4,3.4,2.3,6.7,2.9,10.3c-0.5-4-1.1-8-1.6-12     c0.6,5.1,0.2,10.3,0.4,15.5c0.4,10.6,1.8,21.8,5.2,31.9c6.5,18.8,17,36.9,32.5,49.7c15.2,12.5,32.7,22.9,52.4,26.1     c20.1,3.2,40.7,3.6,59.9-4.1c14.8-5.9,25.6-12.2,37.8-22.7c4.8-4.1,8.8-9,13.7-12.8c-3,2.3-6.1,4.7-9.1,7     c2.7-1.9,5.5-3.5,8.5-4.9c-3.6,1.5-7.2,3-10.7,4.5c3.4-1.4,6.9-2.3,10.6-2.8c-4,0.5-8,1.1-12,1.6c3.2-0.3,6.3-0.3,9.5,0     c-4-0.5-8-1.1-12-1.6c3.7,0.5,7.2,1.4,10.6,2.8c-3.6-1.5-7.2-3-10.7-4.5c3,1.3,5.8,2.9,8.5,4.9c-3-2.3-6.1-4.7-9.1-7     c9.8,7.6,18.1,17.5,26.8,26.3c12.8,12.8,25.6,25.6,38.5,38.5c3.8,3.8,7.9,7.6,11.3,11.9c-2.3-3-4.7-6.1-7-9.1     c1.9,2.7,3.5,5.5,4.9,8.5c-1.5-3.6-3-7.2-4.5-10.7c1.4,3.4,2.3,6.9,2.8,10.6c-0.5-4-1.1-8-1.6-12c0.3,3.2,0.3,6.3,0,9.5     c0.5-4,1.1-8,1.6-12c-0.5,3.7-1.4,7.2-2.8,10.6c1.5-3.6,3-7.2,4.5-10.7c-1.3,3-2.9,5.8-4.9,8.5c2.3-3,4.7-6.1,7-9.1     c-3.2,4.2-7.2,7.6-10.8,11.4c-7.1,7.6-13.9,16.3-18.6,25.7c-8.8,18.1-14.4,38.3-12.4,58.6c2,19.8,7.1,39.6,18.9,56     c5.9,8.1,11.9,16.1,19.7,22.4c9.8,7.9,18.2,13.5,29.7,18.3c12.7,5.4,24.4,7.9,38.4,8.9c6.2,0.5,12.4-0.1,18.6,0.6     c-4-0.5-8-1.1-12-1.6c3.6,0.6,7,1.5,10.3,2.9c-3.6-1.5-7.2-3-10.7-4.5c3.2,1.5,6.2,3.2,9,5.4c-3-2.3-6.1-4.7-9.1-7     c2.4,2,4.5,4.1,6.5,6.5c-2.3-3-4.7-6.1-7-9.1c2.2,2.8,3.9,5.8,5.4,9c-1.5-3.6-3-7.2-4.5-10.7c1.4,3.4,2.3,6.7,2.9,10.3     c-0.5-4-1.1-8-1.6-12c1.5,12.2,0.4,25.1,0.4,37.3c0,18.1,0,36.3,0,54.4c0,5.3,0.3,10.8-0.4,16.1c0.5-4,1.1-8,1.6-12     c-0.6,3.6-1.5,7-2.9,10.3c1.5-3.6,3-7.2,4.5-10.7c-1.5,3.2-3.2,6.2-5.4,9c2.3-3,4.7-6.1,7-9.1c-2,2.4-4.1,4.5-6.5,6.5     c3-2.3,6.1-4.7,9.1-7c-2.8,2.2-5.8,3.9-9,5.4c3.6-1.5,7.2-3,10.7-4.5c-3.4,1.4-6.7,2.3-10.3,2.9c4-0.5,8-1.1,12-1.6     C899.4,555.2,897.5,555.3,895.7,555.4c-11.7,0.2-23.5,4.9-31.8,13.2c-7.8,7.8-13.7,20.6-13.2,31.8c0.5,11.6,4.3,23.7,13.2,31.8     c8.7,8,19.7,13.4,31.8,13.2c22.4-0.4,44.1-8.9,60.1-24.9c15.9-15.9,24.6-37.7,24.9-60.1c0.1-9.7,0-19.3,0-29     c0-16.6,0-33.3,0-49.9c0-15.2,0.9-31.2-4.9-45.6c-5.1-12.6-11.1-24.3-21.4-33.6c-10.3-9.3-21.3-15.9-34.6-20.1     c-13.8-4.4-27.5-2.3-41.4-4.2c4,0.5,8,1.1,12,1.6c-5.8-0.9-11.4-2.4-16.8-4.6c3.6,1.5,7.2,3,10.7,4.5c-5.1-2.2-9.9-5-14.3-8.4     c3,2.3,6.1,4.7,9.1,7c-4.6-3.6-8.6-7.7-12.2-12.2c2.3,3,4.7,6.1,7,9.1c-3.7-4.9-6.7-10.1-9.1-15.8c1.5,3.6,3,7.2,4.5,10.7     c-2.3-5.7-3.9-11.5-4.7-17.6c0.5,4,1.1,8,1.6,12c-0.7-5.8-0.7-11.5,0-17.3c-0.5,4-1.1,8-1.6,12c0.8-5.9,2.4-11.6,4.7-17.1     c-1.5,3.6-3,7.2-4.5,10.7c2.4-5.4,5.3-10.4,8.9-15.1c-2.3,3-4.7,6.1-7,9.1c8.2-10.3,18.4-18.1,24.9-30     c6.8-12.5,9.8-24.4,10.9-38.4c0.4-4.8-0.3-9.3-0.9-14.2c-0.7-5.3-1.3-10.3-3.1-15.3c-5-13.7-12-25.4-22.4-35.7     c-3.9-3.9-7.9-7.9-11.8-11.8c-12.4-12.4-24.9-24.9-37.3-37.3c-10.6-10.6-20.7-21.9-33.5-30.1c-12.2-7.8-26-10.9-40.2-12.2     c-12.6-1.2-25.3,1.9-36.8,6.7c-10.7,4.5-19.9,10.5-28.2,18.8c-3.5,3.5-7,7.1-10.9,10.2c3-2.3,6.1-4.7,9.1-7     c-4.7,3.6-9.7,6.6-15.1,8.9c3.6-1.5,7.2-3,10.7-4.5c-5.5,2.3-11.2,3.8-17.1,4.7c4-0.5,8-1.1,12-1.6c-5.8,0.7-11.5,0.7-17.3,0     c4,0.5,8,1.1,12,1.6c-6.1-0.8-11.9-2.4-17.6-4.7c3.6,1.5,7.2,3,10.7,4.5c-5.6-2.4-10.9-5.4-15.8-9.1c3,2.3,6.1,4.7,9.1,7     c-4.6-3.6-8.7-7.6-12.2-12.2c2.3,3,4.7,6.1,7,9.1c-3.4-4.5-6.1-9.2-8.4-14.3c1.5,3.6,3,7.2,4.5,10.7c-2.2-5.4-3.8-11-4.6-16.8     c0.5,4,1.1,8,1.6,12c-1.7-13.3-0.1-26.1-3.6-39.4c-5.7-21.5-21.2-42-41.1-52.3c-13.6-7-27.6-10.5-43-10.5c-5.5,0-11.1,0-16.6,0     c-17.9,0-35.8,0-53.6,0c-15.6,0-32.2-1.2-47.3,3.1c-13.4,3.8-25,10.8-35.4,20c-10.6,9.5-17.1,21.6-22.2,34.7     c-5.6,14.6-3.4,29.5-5.3,44.5c0.5-4,1.1-8,1.6-12c-0.9,5.8-2.4,11.4-4.6,16.8c1.5-3.6,3-7.2,4.5-10.7c-2.2,5.1-5,9.9-8.4,14.3     c2.3-3,4.7-6.1,7-9.1c-3.6,4.6-7.7,8.6-12.2,12.2c3-2.3,6.1-4.7,9.1-7c-4.9,3.7-10.1,6.7-15.8,9.1c3.6-1.5,7.2-3,10.7-4.5     c-5.7,2.3-11.5,3.9-17.6,4.7c4-0.5,8-1.1,12-1.6c-5.8,0.7-11.5,0.7-17.3,0c4,0.5,8,1.1,12,1.6c-5.9-0.8-11.6-2.4-17.1-4.7     c3.6,1.5,7.2,3,10.7,4.5c-5.4-2.4-10.4-5.3-15.1-8.9c3,2.3,6.1,4.7,9.1,7c-10.3-8.2-18.1-18.4-30-24.9     c-12.5-6.8-24.4-9.8-38.4-10.9c-4.8-0.4-9.3,0.3-14.2,0.9c-5.3,0.7-10.3,1.3-15.3,3.1c-13.7,5-25.4,12-35.7,22.4     c-3.9,3.9-7.9,7.9-11.8,11.8c-12.4,12.4-24.9,24.9-37.3,37.3c-10.6,10.6-21.9,20.7-30.1,33.5c-7.8,12.2-10.9,26-12.2,40.2     c-1.2,12.6,1.9,25.3,6.7,36.8c4.5,10.7,10.5,19.9,18.8,28.2c3.5,3.5,7.1,7,10.2,10.9c-2.3-3-4.7-6.1-7-9.1     c3.6,4.7,6.6,9.7,8.9,15.1c-1.5-3.6-3-7.2-4.5-10.7c2.3,5.5,3.8,11.2,4.7,17.1c-0.5-4-1.1-8-1.6-12c0.7,5.8,0.7,11.5,0,17.3     c0.5-4,1.1-8,1.6-12c-0.8,6.1-2.4,11.9-4.7,17.6c1.5-3.6,3-7.2,4.5-10.7c-2.4,5.6-5.4,10.9-9.1,15.8c2.3-3,4.7-6.1,7-9.1     c-3.6,4.6-7.6,8.7-12.2,12.2c3-2.3,6.1-4.7,9.1-7c-4.5,3.4-9.2,6.1-14.3,8.4c3.6-1.5,7.2-3,10.7-4.5c-5.4,2.2-11,3.8-16.8,4.6     c4-0.5,8-1.1,12-1.6c-13.3,1.7-26.1,0.1-39.4,3.6c-21.5,5.7-42,21.2-52.3,41.1c-7,13.6-10.5,27.6-10.5,43c0,5.5,0,11.1,0,16.6     c0,17.9,0,35.8,0,53.6c0,15.6-1.2,32.2,3.1,47.3c3.8,13.4,10.8,25,20,35.4c9.5,10.6,21.6,17.1,34.7,22.2     c14.6,5.6,29.5,3.4,44.5,5.3c-4-0.5-8-1.1-12-1.6c5.8,0.9,11.4,2.4,16.8,4.6c-3.6-1.5-7.2-3-10.7-4.5c5.1,2.2,9.9,5,14.3,8.4     c-3-2.3-6.1-4.7-9.1-7c4.6,3.6,8.6,7.7,12.2,12.2c-2.3-3-4.7-6.1-7-9.1c3.7,4.9,6.7,10.1,9.1,15.8c-1.5-3.6-3-7.2-4.5-10.7     c2.3,5.7,3.9,11.5,4.7,17.6c-0.5-4-1.1-8-1.6-12c0.7,5.8,0.7,11.5,0,17.3c0.5-4,1.1-8,1.6-12c-0.8,5.9-2.4,11.6-4.7,17.1     c1.5-3.6,3-7.2,4.5-10.7c-2.4,5.4-5.3,10.4-8.9,15.1c2.3-3,4.7-6.1,7-9.1c-8.2,10.3-18.4,18.1-24.9,30     c-6.8,12.5-9.8,24.4-10.9,38.4c-0.4,4.8,0.3,9.3,0.9,14.2c0.7,5.3,1.3,10.3,3.1,15.3c5,13.7,12,25.4,22.4,35.7     c3.9,3.9,7.9,7.9,11.8,11.8c12.4,12.4,24.9,24.9,37.3,37.3c10.6,10.6,20.7,21.9,33.5,30.1c12.2,7.8,26,10.9,40.2,12.2     c12.6,1.2,25.3-1.9,36.8-6.7c10.7-4.5,19.9-10.5,28.2-18.8c3.5-3.5,7-7.1,10.9-10.2c-3,2.3-6.1,4.7-9.1,7     c4.7-3.6,9.7-6.6,15.1-8.9c-3.6,1.5-7.2,3-10.7,4.5c5.5-2.3,11.2-3.8,17.1-4.7c-4,0.5-8,1.1-12,1.6c5.8-0.7,11.5-0.7,17.3,0     c-4-0.5-8-1.1-12-1.6c6.1,0.8,11.9,2.4,17.6,4.7c-3.6-1.5-7.2-3-10.7-4.5c5.6,2.4,10.9,5.4,15.8,9.1c-3-2.3-6.1-4.7-9.1-7     c4.6,3.6,8.7,7.6,12.2,12.2c-2.3-3-4.7-6.1-7-9.1c3.4,4.5,6.1,9.2,8.4,14.3c-1.5-3.6-3-7.2-4.5-10.7c2.2,5.4,3.8,11,4.6,16.8     c-0.5-4-1.1-8-1.6-12c1.7,13.3,0.1,26.1,3.6,39.4c5.7,21.5,21.2,42,41.1,52.3c13.6,7,27.6,10.5,43,10.5c5.5,0,11.1,0,16.6,0     c17.9,0,35.8,0,53.6,0c15.6,0,32.2,1.2,47.3-3.1c13.4-3.8,25-10.8,35.4-20c10.6-9.5,17.1-21.6,22.2-34.7     c5.6-14.6,3.4-29.5,5.3-44.5c-0.5,4-1.1,8-1.6,12c0.9-5.8,2.4-11.4,4.6-16.8c-1.5,3.6-3,7.2-4.5,10.7c2.2-5.1,5-9.9,8.4-14.3     c-2.3,3-4.7,6.1-7,9.1c3.6-4.6,7.7-8.6,12.2-12.2c-3,2.3-6.1,4.7-9.1,7c4.9-3.7,10.1-6.7,15.8-9.1c-3.6,1.5-7.2,3-10.7,4.5     c5.7-2.3,11.5-3.9,17.6-4.7c-4,0.5-8,1.1-12,1.6c5.8-0.7,11.5-0.7,17.3,0c-4-0.5-8-1.1-12-1.6c5.9,0.8,11.6,2.4,17.1,4.7     c-3.6-1.5-7.2-3-10.7-4.5c5.4,2.4,10.4,5.3,15.1,8.9c-3-2.3-6.1-4.7-9.1-7c10.3,8.2,18.1,18.4,30,24.9     c12.5,6.8,24.4,9.8,38.4,10.9c4.8,0.4,9.3-0.3,14.2-0.9c5.3-0.7,10.3-1.3,15.3-3.1c13.7-5,25.4-12,35.7-22.4     c3.9-3.9,7.9-7.9,11.8-11.8c12.4-12.4,24.9-24.9,37.3-37.3c10.6-10.6,21.9-20.7,30.1-33.5c7.8-12.2,10.9-26,12.2-40.2     c1.2-12.6-1.9-25.3-6.7-36.8c-4.5-10.7-10.5-19.9-18.8-28.2c-3.5-3.5-7.1-7-10.2-10.9c2.3,3,4.7,6.1,7,9.1     c-3.6-4.7-6.6-9.7-8.9-15.1c1.5,3.6,3,7.2,4.5,10.7c-2.3-5.5-3.8-11.2-4.7-17.1c0.5,4,1.1,8,1.6,12c-0.7-5.8-0.7-11.5,0-17.3     c-0.5,4-1.1,8-1.6,12c0.8-6.1,2.4-11.9,4.7-17.6c-1.5,3.6-3,7.2-4.5,10.7c2.4-5.6,5.4-10.9,9.1-15.8c-2.3,3-4.7,6.1-7,9.1     c3.6-4.6,7.6-8.7,12.2-12.2c-3,2.3-6.1,4.7-9.1,7c4.5-3.4,9.2-6.1,14.3-8.4c-3.6,1.5-7.2,3-10.7,4.5c5.4-2.2,11-3.8,16.8-4.6     c-4,0.5-8,1.1-12,1.6c5.7-0.7,11.5-0.7,17.3-0.7c11.5,0,23.7-5,31.8-13.2c7.8-7.8,13.7-20.6,13.2-31.8     c-0.5-11.6-4.3-23.7-13.2-31.8C918.7,560.5,907.9,555.4,895.7,555.4z"></path></g></g><g><g><path d="M635.2,512c0,7.4-0.5,14.8-1.4,22.1c0.5-4,1.1-8,1.6-12c-2,14.7-5.8,29-11.5,42.7c1.5-3.6,3-7.2,4.5-10.7     c-5.6,13.3-12.9,25.9-21.7,37.4c2.3-3,4.7-6.1,7-9.1c-9.1,11.7-19.6,22.2-31.3,31.3c3-2.3,6.1-4.7,9.1-7     c-11.5,8.8-24.1,16-37.4,21.7c3.6-1.5,7.2-3,10.7-4.5c-13.7,5.7-28,9.5-42.7,11.5c4-0.5,8-1.1,12-1.6c-14.7,1.9-29.6,1.9-44.3,0     c4,0.5,8,1.1,12,1.6c-14.7-2-29-5.8-42.7-11.5c3.6,1.5,7.2,3,10.7,4.5c-13.3-5.6-25.9-12.9-37.4-21.7c3,2.3,6.1,4.7,9.1,7     c-11.7-9.1-22.2-19.6-31.3-31.3c2.3,3,4.7,6.1,7,9.1c-8.8-11.5-16-24.1-21.7-37.4c1.5,3.6,3,7.2,4.5,10.7     c-5.7-13.7-9.5-28-11.5-42.7c0.5,4,1.1,8,1.6,12c-1.9-14.7-1.9-29.6,0-44.3c-0.5,4-1.1,8-1.6,12c2-14.7,5.8-29,11.5-42.7     c-1.5,3.6-3,7.2-4.5,10.7c5.6-13.3,12.9-25.9,21.7-37.4c-2.3,3-4.7,6.1-7,9.1c9.1-11.7,19.6-22.2,31.3-31.3c-3,2.3-6.1,4.7-9.1,7     c11.5-8.8,24.1-16,37.4-21.7c-3.6,1.5-7.2,3-10.7,4.5c13.7-5.7,28-9.5,42.7-11.5c-4,0.5-8,1.1-12,1.6c14.7-1.9,29.6-1.9,44.3,0     c-4-0.5-8-1.1-12-1.6c14.7,2,29,5.8,42.7,11.5c-3.6-1.5-7.2-3-10.7-4.5c13.3,5.6,25.9,12.9,37.4,21.7c-3-2.3-6.1-4.7-9.1-7     c11.7,9.1,22.2,19.6,31.3,31.3c-2.3-3-4.7-6.1-7-9.1c8.8,11.5,16,24.1,21.7,37.4c-1.5-3.6-3-7.2-4.5-10.7     c5.7,13.7,9.5,28,11.5,42.7c-0.5-4-1.1-8-1.6-12C634.7,497.2,635.2,504.6,635.2,512c0,11.6,5,23.6,13.2,31.8     c7.8,7.8,20.6,13.7,31.8,13.2c11.6-0.5,23.7-4.3,31.8-13.2c8.1-8.8,13.2-19.6,13.2-31.8c-0.2-42.4-12.8-86.2-37.7-120.8     c-7-9.8-14.5-19.4-22.9-28.1c-8.5-8.7-17.9-16.2-27.6-23.5c-16.7-12.6-35.3-21.7-54.9-28.9c-40.2-14.8-86.9-15.6-128-3.9     c-39.8,11.3-77.9,34.9-104.2,67c-7.7,9.4-15.1,19-21.3,29.4c-6.2,10.4-10.9,21.4-15.5,32.5c-8.1,19.9-12,40.9-13.7,62.3     c-3.5,42.5,7.8,87.4,29.9,123.8c21.3,35,53.4,65.4,90.9,82.4c11.2,5.1,22.6,9.8,34.5,13.2c12,3.3,24.2,5.1,36.5,6.5     c21.9,2.6,44,0.7,65.6-3.6c40.8-8.1,80-30.4,108.6-60.4c28.5-29.8,49.7-68.8,56.1-109.8c2-12.7,3.6-25.3,3.6-38.2     c0-11.5-5.1-23.7-13.2-31.8c-7.8-7.8-20.6-13.7-31.8-13.2C655.7,468.1,635.3,486.8,635.2,512z"></path></g></g></g></svg>